<svg xmlns="http://www.w3.org/2000/svg" width="1200" height="420" viewBox="0 0 1200 420" role="img" aria-labelledby="title desc">
  <title id="title">Research Agent Skill Map</title>
  <desc id="desc">A technical map connecting evidence, computation, scientific writing, and AI nodes.</desc>
  <defs>
    <linearGradient id="background" x1="0" y1="0" x2="1" y2="1">
      <stop offset="0" stop-color="#08111f"/>
      <stop offset="1" stop-color="#17213a"/>
    </linearGradient>
    <linearGradient id="route" x1="0" y1="0" x2="1" y2="0">
      <stop offset="0" stop-color="#22d3ee"/>
      <stop offset="0.52" stop-color="#60a5fa"/>
      <stop offset="1" stop-color="#a78bfa"/>
    </linearGradient>
    <pattern id="grid" width="32" height="32" patternUnits="userSpaceOnUse">
      <path d="M32 0H0V32" fill="none" stroke="#94a3b8" stroke-opacity="0.07"/>
    </pattern>
    <filter id="glow" x="-40%" y="-40%" width="180%" height="180%">
      <feGaussianBlur stdDeviation="5" result="blur"/>
      <feMerge><feMergeNode in="blur"/><feMergeNode in="SourceGraphic"/></feMerge>
    </filter>
  </defs>

  <rect width="1200" height="420" rx="24" fill="url(#background)"/>
  <rect width="1200" height="420" rx="24" fill="url(#grid)"/>
  <circle cx="1090" cy="52" r="120" fill="#7c3aed" opacity="0.08"/>
  <circle cx="705" cy="402" r="155" fill="#0891b2" opacity="0.07"/>

  <g font-family="system-ui, -apple-system, BlinkMacSystemFont, 'Segoe UI', sans-serif">
    <text x="72" y="145" fill="#93c5fd" font-size="18" font-weight="650" letter-spacing="3">OPEN-SOURCE DECISION GUIDE</text>
    <text x="70" y="207" fill="#f8fafc" font-size="54" font-weight="750" letter-spacing="-1.5">Research Agent</text>
    <text x="70" y="267" fill="#f8fafc" font-size="54" font-weight="750" letter-spacing="-1.5">Skill Map</text>
    <text x="72" y="318" fill="#cbd5e1" font-size="21">Choose the right research-agent toolkit for the task</text>
  </g>

  <g fill="none" stroke-linecap="round" stroke-linejoin="round">
    <path d="M617 210 C677 210 674 103 742 103 S811 210 866 210 S937 102 1000 102" stroke="#334155" stroke-width="18" opacity="0.32"/>
    <path d="M617 210 C677 210 674 103 742 103 S811 210 866 210 S937 102 1000 102" stroke="url(#route)" stroke-width="3"/>
    <path d="M617 210 C678 210 680 318 746 318 S817 210 866 210 S941 318 1006 318" stroke="#334155" stroke-width="18" opacity="0.32"/>
    <path d="M617 210 C678 210 680 318 746 318 S817 210 866 210 S941 318 1006 318" stroke="url(#route)" stroke-width="3"/>
    <path d="M866 210 H1125" stroke="url(#route)" stroke-width="3"/>
  </g>

  <g filter="url(#glow)">
    <circle cx="617" cy="210" r="7" fill="#22d3ee"/>
    <circle cx="742" cy="103" r="7" fill="#38bdf8"/>
    <circle cx="746" cy="318" r="7" fill="#60a5fa"/>
    <circle cx="866" cy="210" r="9" fill="#818cf8"/>
    <circle cx="1000" cy="102" r="7" fill="#a78bfa"/>
    <circle cx="1006" cy="318" r="7" fill="#a78bfa"/>
    <circle cx="1125" cy="210" r="7" fill="#c4b5fd"/>
  </g>

  <g transform="translate(682 53)">
    <rect width="120" height="100" rx="15" fill="#111c31" stroke="#38bdf8" stroke-opacity="0.55"/>
    <path d="M31 25h42l16 16v34H31z" fill="none" stroke="#bae6fd" stroke-width="2"/>
    <path d="M73 25v17h16M43 53h33M43 64h25" fill="none" stroke="#38bdf8" stroke-width="2"/>
    <text x="60" y="91" text-anchor="middle" fill="#cbd5e1" font-family="system-ui, sans-serif" font-size="11" letter-spacing="1.5">EVIDENCE</text>
  </g>

  <g transform="translate(684 268)">
    <rect width="124" height="100" rx="15" fill="#111c31" stroke="#60a5fa" stroke-opacity="0.55"/>
    <rect x="38" y="20" width="48" height="48" rx="7" fill="none" stroke="#bfdbfe" stroke-width="2"/>
    <path d="M49 35h26M49 44h17M49 53h22M29 30h9M29 44h9M29 58h9M86 30h9M86 44h9M86 58h9" stroke="#60a5fa" stroke-width="2"/>
    <text x="62" y="91" text-anchor="middle" fill="#cbd5e1" font-family="system-ui, sans-serif" font-size="11" letter-spacing="1.5">COMPUTE</text>
  </g>

  <g transform="translate(938 52)">
    <rect width="124" height="100" rx="15" fill="#111c31" stroke="#a78bfa" stroke-opacity="0.55"/>
    <path d="M31 29h59M31 42h46M31 55h53M31 68h35" stroke="#ddd6fe" stroke-width="2"/>
    <path d="M88 56l10 10-22 14-8-2 2-8z" fill="none" stroke="#a78bfa" stroke-width="2"/>
    <text x="62" y="91" text-anchor="middle" fill="#cbd5e1" font-family="system-ui, sans-serif" font-size="11" letter-spacing="1.5">WRITING</text>
  </g>

  <g transform="translate(944 268)">
    <rect width="124" height="100" rx="15" fill="#111c31" stroke="#a78bfa" stroke-opacity="0.55"/>
    <path d="M62 17l31 18v36L62 89 31 71V35z" fill="none" stroke="#ddd6fe" stroke-width="2"/>
    <circle cx="62" cy="53" r="12" fill="none" stroke="#a78bfa" stroke-width="2"/>
    <path d="M62 41V29M62 77V65M50 53H39M85 53H74M53 44l-8-8M79 70l-8-8M71 44l8-8M45 70l8-8" stroke="#a78bfa" stroke-width="2"/>
    <text x="62" y="96" text-anchor="middle" fill="#cbd5e1" font-family="system-ui, sans-serif" font-size="11" letter-spacing="1.5">AI SYSTEMS</text>
  </g>

  <g transform="translate(1085 170)">
    <rect width="80" height="80" rx="18" fill="#17233c" stroke="#c4b5fd" stroke-opacity="0.65"/>
    <circle cx="40" cy="40" r="20" fill="none" stroke="#e0e7ff" stroke-width="2"/>
    <circle cx="40" cy="40" r="5" fill="#c4b5fd"/>
    <path d="M40 20v-9M40 69v-9M20 40h-9M69 40h-9M26 26l-6-6M60 60l-6-6M54 26l6-6M20 60l6-6" stroke="#a78bfa" stroke-width="2"/>
  </g>
</svg>
